<?xml version="1.0" encoding="UTF-8"?>
<svg id="Camada_1" data-name="Camada 1" xmlns="http://www.w3.org/2000/svg" viewBox="0 0 283.46 283.46">
  <defs>
    <style>
      .cls-1 {
        stroke-width: 0px;
      }
    </style>
  </defs>
  <path class="cls-1" d="M104.12,178.02c-2.94-1.11-5.26-2.12-6.81-2.89v23.44h6.81v-20.55Z"/>
  <path class="cls-1" d="M186.17,175.39c-1.65.77-4.03,1.76-6.81,2.79v20.39h6.81v-23.18Z"/>
  <path class="cls-1" d="M189.47,116.09c-.52,2.21-.82,4.76-.99,6.88,14.74,5.27,23.54,12.68,23.54,19.9,0,7.59-9.7,15.4-25.85,20.7v-14.91c-2.3.24-4.85.62-6.81,1.25v15.64c-9.7,2.47-21.21,4.03-34.17,4.28v-2.74c0-11.47,9.31-20.77,20.79-20.77h26.48v-6.92h-6.29v-58.57h-6.81v32.42c-10.15-2.46-21.7-3.94-34.17-4.18v-34.99h-6.91v34.99c-12.46.24-24.01,1.71-34.15,4.17v-32.42h-6.81v58.57h-6.21v6.92h26.4c11.47,0,20.77,9.3,20.77,20.77v2.74c-12.95-.25-24.45-1.81-34.15-4.27v-15.64c-1.96-.63-4.52-1.01-6.81-1.25v14.91c-16.16-5.3-25.87-13.11-25.87-20.7s8.79-14.61,23.5-19.88c-.17-2.12-.47-4.67-.98-6.88-17.94,6.16-29.33,15.76-29.33,26.76,0,18.5,32.08,33.06,73.64,33.84v32.67h6.91v-32.67c41.56-.77,73.65-15.34,73.65-33.84,0-11.01-11.4-20.62-29.36-26.78ZM179.35,120.27v19.13h-13.39c-11.47,0-20.79-9.3-20.79-20.77v-2.74c13.01.26,24.48,1.87,34.17,4.38ZM117.51,139.4h-13.38v-19.13c9.69-2.51,21.15-4.12,34.15-4.38v2.74c0,11.47-9.3,20.77-20.77,20.77Z"/>
</svg>