<?xml version="1.0" encoding="UTF-8"?>
<svg id="Camada_1" data-name="Camada 1" xmlns="http://www.w3.org/2000/svg" viewBox="0 0 425.2 283.46">
  <defs>
    <style>
      .cls-1 {
        stroke-width: 0px;
      }
    </style>
  </defs>
  <g>
    <path class="cls-1" d="M47.94,163.41c0-1.67.17-3.24.49-4.71.33-1.48.81-2.83,1.44-4.08s1.39-2.36,2.28-3.34c.89-.99,1.9-1.83,3.03-2.51,1.12-.69,2.35-1.21,3.69-1.58,1.34-.37,2.76-.55,4.27-.55s2.93.18,4.27.55c1.33.37,2.57.9,3.69,1.58,1.13.69,2.14,1.52,3.04,2.51.9.99,1.66,2.1,2.28,3.34s1.1,2.6,1.44,4.08.5,3.05.5,4.71-.17,3.23-.5,4.71-.81,2.84-1.44,4.08-1.38,2.36-2.28,3.34c-.9.99-1.91,1.82-3.04,2.51-1.12.69-2.36,1.21-3.69,1.58-1.34.37-2.76.55-4.27.55s-2.93-.19-4.27-.55c-1.34-.37-2.57-.9-3.69-1.58-1.13-.69-2.14-1.52-3.03-2.51-.9-.99-1.66-2.1-2.28-3.34s-1.1-2.6-1.44-4.08c-.33-1.48-.49-3.05-.49-4.71ZM52.67,163.41c0,1.94.24,3.67.71,5.2s1.17,2.83,2.07,3.89c.9,1.06,2,1.88,3.29,2.44,1.3.57,2.76.85,4.4.85s3.1-.28,4.4-.85c1.3-.57,2.39-1.38,3.3-2.44.9-1.06,1.59-2.36,2.07-3.89s.72-3.27.72-5.2-.24-3.67-.72-5.2c-.48-1.53-1.17-2.83-2.07-3.89-.9-1.06-2-1.88-3.3-2.44-1.29-.57-2.76-.85-4.4-.85s-3.1.28-4.4.85c-1.29.57-2.39,1.38-3.29,2.44-.9,1.06-1.59,2.36-2.07,3.89-.48,1.53-.71,3.27-.71,5.2Z"/>
    <path class="cls-1" d="M81.85,147.31h14.94c1.12,0,2.19.12,3.19.35,1.01.23,1.94.56,2.79,1s1.62.95,2.31,1.57c.69.61,1.27,1.3,1.75,2.07.48.77.85,1.6,1.11,2.5.26.9.39,1.86.39,2.86s-.13,1.96-.39,2.87c-.26.91-.63,1.75-1.12,2.52s-1.07,1.47-1.75,2.09-1.45,1.15-2.31,1.59c-.86.44-1.79.78-2.79,1.01s-2.07.35-3.19.35h-10.2v11.43h-4.73v-32.21ZM96.41,163.69c1.1,0,2.09-.14,2.97-.42.89-.28,1.64-.68,2.26-1.21.62-.53,1.1-1.16,1.44-1.9.34-.74.5-1.57.5-2.49s-.17-1.74-.5-2.48c-.33-.74-.8-1.36-1.42-1.88-.62-.52-1.36-.92-2.24-1.19s-1.86-.42-2.95-.42h-9.92v11.99h9.83Z"/>
    <path class="cls-1" d="M133.24,147.31v4.39h-17.03v9.55h15.67v4.39h-15.67v9.48h17.48v4.39h-22.21v-32.21h21.76Z"/>
    <path class="cls-1" d="M165.15,179.51h-7.68l-16.3-29.18v29.18h-4.62v-32.21h8.36l15.62,27.97v-27.97h4.62v32.21Z"/>
    <path class="cls-1" d="M205.92,179.51h-4.73v-13.88h-17.34v13.88h-4.73v-32.21h4.73v13.94h17.34v-13.94h4.73v32.21Z"/>
    <path class="cls-1" d="M231.51,147.31v4.39h-17.03v9.55h15.67v4.39h-15.67v9.48h17.48v4.39h-22.21v-32.21h21.76Z"/>
    <path class="cls-1" d="M233.31,179.51l12.01-32.21h7.1l11.84,32.21h-5.02l-2.94-8.08h-15.09l-2.99,8.08h-4.91ZM254.73,167.16l-5.92-16.28-6.03,16.28h11.95Z"/>
    <path class="cls-1" d="M291.04,147.31l-11.56,32.21h-7.09l-11.4-32.21h5.02l9.98,28.55,10.14-28.55h4.91Z"/>
    <path class="cls-1" d="M315.11,147.31v4.39h-17.03v9.55h15.67v4.39h-15.67v9.48h17.48v4.39h-22.21v-32.21h21.76Z"/>
    <path class="cls-1" d="M347.02,179.51h-7.68l-16.3-29.18v29.18h-4.62v-32.21h8.36l15.62,27.97v-27.97h4.62v32.21Z"/>
    <path class="cls-1" d="M363.4,146.63c1.92,0,3.66.24,5.23.72,1.56.48,2.9,1.17,4,2.06,1.11.9,1.96,1.98,2.56,3.27.6,1.28.9,2.73.9,4.33h-4.62c0-.94-.19-1.78-.59-2.53-.39-.75-.95-1.39-1.66-1.92-.71-.53-1.57-.94-2.56-1.22s-2.09-.43-3.29-.43c-.67,0-1.34.05-2.01.14-.67.09-1.31.24-1.92.43-.62.19-1.18.43-1.71.73-.52.29-.98.64-1.36,1.04-.39.4-.69.85-.91,1.36-.22.51-.34,1.07-.34,1.68,0,.81.2,1.47.59,1.97s.95.92,1.66,1.23c.72.32,1.6.58,2.63.77s2.18.39,3.46.59l1.67.25c.68.11,1.38.22,2.09.33s1.41.25,2.11.42,1.38.36,2.04.59c.66.23,1.29.5,1.87.82.59.32,1.13.69,1.62,1.12.49.43.92.93,1.27,1.5.35.57.63,1.21.82,1.94.2.73.3,1.54.3,2.46,0,1.11-.15,2.13-.45,3.06-.3.93-.73,1.76-1.29,2.49s-1.24,1.38-2.03,1.93c-.8.55-1.7,1-2.69,1.37-1,.36-2.09.64-3.27.82-1.18.18-2.43.27-3.74.27-2.16,0-4.1-.24-5.81-.72s-3.16-1.17-4.35-2.08c-1.19-.91-2.1-2.03-2.73-3.36s-.95-2.83-.95-4.52h4.62c0,1,.21,1.89.64,2.69.43.79,1.04,1.46,1.83,2.02.79.55,1.76.97,2.88,1.26,1.13.29,2.4.43,3.8.43.8,0,1.58-.05,2.34-.15.75-.1,1.46-.25,2.12-.46.66-.21,1.26-.47,1.81-.78s1.01-.68,1.4-1.1c.39-.42.69-.91.91-1.45.22-.54.33-1.15.33-1.81,0-.59-.09-1.11-.27-1.54-.17-.44-.43-.81-.76-1.13s-.73-.59-1.2-.8c-.47-.22-.99-.4-1.58-.56-.58-.15-1.22-.29-1.9-.41s-1.41-.23-2.17-.35l-2.09-.31c-.92-.14-1.86-.3-2.82-.46-.96-.16-1.89-.37-2.79-.64-.9-.26-1.74-.59-2.54-.98s-1.49-.89-2.08-1.48c-.59-.6-1.06-1.31-1.41-2.15-.34-.84-.52-1.83-.52-2.97,0-1.07.15-2.06.47-2.96.31-.9.75-1.71,1.31-2.43.56-.72,1.24-1.35,2.03-1.9s1.66-1,2.61-1.36c.95-.36,1.98-.64,3.07-.82s2.22-.28,3.4-.28Z"/>
  </g>
  <g>
    <path class="cls-1" d="M173.42,206.16c0,.87.11,1.65.32,2.33s.52,1.27.93,1.74c.4.48.9.84,1.48,1.1.58.25,1.24.38,1.97.38.59,0,1.13-.08,1.61-.25.48-.17.91-.42,1.28-.75.37-.33.67-.74.92-1.23.25-.49.43-1.06.56-1.7h2.12c-.15.92-.41,1.75-.78,2.48-.37.73-.84,1.35-1.4,1.86-.56.51-1.2.9-1.93,1.17-.73.27-1.52.4-2.39.4-.67,0-1.31-.08-1.91-.25-.6-.16-1.15-.4-1.65-.71-.5-.31-.96-.68-1.36-1.12-.4-.44-.74-.94-1.02-1.5-.28-.56-.5-1.17-.64-1.83-.15-.66-.22-1.37-.22-2.11s.07-1.45.22-2.11c.15-.66.36-1.27.64-1.83.28-.56.62-1.06,1.02-1.5.4-.44.85-.82,1.36-1.13.5-.31,1.05-.54,1.65-.71.6-.16,1.23-.25,1.91-.25.86,0,1.66.13,2.39.4.73.27,1.37.66,1.93,1.17s1.03,1.13,1.4,1.86.64,1.56.78,2.48h-2.12c-.12-.65-.31-1.21-.56-1.7s-.56-.9-.92-1.23c-.37-.33-.8-.58-1.28-.75-.49-.17-1.02-.25-1.61-.25-.73,0-1.38.13-1.97.38-.58.25-1.07.62-1.48,1.1-.4.48-.71,1.06-.93,1.74-.21.69-.32,1.47-.32,2.33Z"/>
    <path class="cls-1" d="M198.29,213.38h-2.12v-6.22h-7.77v6.22h-2.12v-14.44h2.12v6.25h7.77v-6.25h2.12v14.44Z"/>
    <path class="cls-1" d="M199.91,198.94h2.12v8.38c0,.7.09,1.32.27,1.86.18.54.44,1.01.78,1.38s.77.66,1.27.86,1.07.29,1.72.29,1.21-.1,1.72-.29c.5-.2.93-.48,1.27-.86s.6-.84.78-1.38c.18-.55.27-1.17.27-1.86v-8.38h2.12v8.38c0,.65-.07,1.25-.2,1.82-.13.56-.32,1.08-.57,1.55s-.55.89-.91,1.26c-.35.37-.77.68-1.22.94-.46.26-.96.45-1.51.59-.54.13-1.13.2-1.76.2s-1.21-.07-1.76-.2-1.05-.33-1.5-.59c-.46-.25-.86-.57-1.22-.94s-.66-.79-.91-1.26c-.25-.47-.44-.99-.57-1.55-.13-.57-.2-1.17-.2-1.82v-8.38Z"/>
    <path class="cls-1" d="M213.84,213.38v-14.44h6.99c.48,0,.93.05,1.36.14.43.09.82.23,1.18.41.36.18.69.39.98.64.29.25.53.53.73.85.21.32.36.66.47,1.03.11.37.16.77.16,1.18,0,.56-.09,1.06-.28,1.52s-.46.85-.81,1.17c-.35.33-.77.58-1.26.77-.49.19-1.04.29-1.64.31.54.04,1.01.26,1.43.64.42.38.78.92,1.1,1.63l1.87,4.16h-2.33l-1.86-4.15c-.12-.27-.26-.5-.42-.69-.16-.19-.35-.34-.57-.45s-.49-.2-.79-.25c-.3-.05-.66-.08-1.08-.08h-3.1v5.61h-2.12ZM220.55,205.8c.47,0,.9-.06,1.28-.17.37-.11.69-.28.95-.49.26-.21.46-.48.6-.78s.21-.66.21-1.05-.07-.72-.21-1.02c-.13-.3-.33-.55-.59-.75-.26-.2-.58-.36-.96-.46-.38-.1-.81-.16-1.3-.16h-4.58v4.89h4.6Z"/>
    <path class="cls-1" d="M229.03,206.16c0,.87.11,1.65.32,2.33s.52,1.27.93,1.74c.4.48.9.84,1.48,1.1.58.25,1.24.38,1.97.38.59,0,1.13-.08,1.61-.25.48-.17.91-.42,1.28-.75.37-.33.67-.74.92-1.23.25-.49.43-1.06.56-1.7h2.12c-.15.92-.41,1.75-.78,2.48-.37.73-.84,1.35-1.4,1.86-.56.51-1.2.9-1.93,1.17-.73.27-1.52.4-2.39.4-.67,0-1.31-.08-1.91-.25-.6-.16-1.15-.4-1.65-.71-.5-.31-.96-.68-1.36-1.12-.4-.44-.74-.94-1.02-1.5-.28-.56-.5-1.17-.64-1.83-.15-.66-.22-1.37-.22-2.11s.07-1.45.22-2.11c.15-.66.36-1.27.64-1.83.28-.56.62-1.06,1.02-1.5.4-.44.85-.82,1.36-1.13.5-.31,1.05-.54,1.65-.71.6-.16,1.23-.25,1.91-.25.86,0,1.66.13,2.39.4.73.27,1.37.66,1.93,1.17s1.03,1.13,1.4,1.86.64,1.56.78,2.48h-2.12c-.12-.65-.31-1.21-.56-1.7s-.56-.9-.92-1.23c-.37-.33-.8-.58-1.28-.75-.49-.17-1.02-.25-1.61-.25-.73,0-1.38.13-1.97.38-.58.25-1.07.62-1.48,1.1-.4.48-.71,1.06-.93,1.74-.21.69-.32,1.47-.32,2.33Z"/>
    <path class="cls-1" d="M253.9,213.38h-2.12v-6.22h-7.77v6.22h-2.12v-14.44h2.12v6.25h7.77v-6.25h2.12v14.44Z"/>
  </g>
  <g>
    <path class="cls-1" d="M196.07,115.45c-1.29-.49-2.31-.93-2.99-1.27v10.3h2.99v-9.03Z"/>
    <path class="cls-1" d="M232.12,114.3c-.72.34-1.77.77-2.99,1.22v8.96h2.99v-10.18Z"/>
    <path class="cls-1" d="M233.58,88.24c-.23.97-.36,2.09-.43,3.02,6.48,2.32,10.34,5.57,10.34,8.74,0,3.33-4.26,6.77-11.36,9.1v-6.55c-1.01.1-2.13.27-2.99.55v6.87c-4.26,1.08-9.32,1.77-15.02,1.88v-1.2c0-5.04,4.09-9.13,9.13-9.13h11.64v-3.04h-2.76v-25.74h-2.99v14.25c-4.46-1.08-9.54-1.73-15.02-1.83v-15.37h-3.04v15.37c-5.48.1-10.55.75-15.01,1.83v-14.24h-2.99v25.74h-2.73v3.04h11.6c5.04,0,9.13,4.09,9.13,9.13v1.2c-5.69-.11-10.74-.8-15.01-1.88v-6.87c-.86-.28-1.98-.45-2.99-.55v6.55c-7.1-2.33-11.37-5.76-11.37-9.1s3.86-6.42,10.33-8.74c-.07-.93-.21-2.05-.43-3.02-7.88,2.71-12.89,6.93-12.89,11.76,0,8.13,14.1,14.53,32.36,14.87v14.36h3.04v-14.36c18.26-.34,32.36-6.74,32.36-14.87,0-4.84-5.01-9.06-12.9-11.77ZM229.13,90.08v8.4h-5.88c-5.04,0-9.13-4.09-9.13-9.13v-1.2c5.72.11,10.76.82,15.02,1.92ZM201.95,98.48h-5.88v-8.4c4.26-1.1,9.29-1.81,15.01-1.92v1.2c0,5.04-4.09,9.13-9.13,9.13Z"/>
  </g>
</svg>